# xmcd
#
# Track frame offsets:
#	150
#	11310
#	21979
#	32014
#	41189
#	51914
#	64182
#	75713
#	89528
#	100102
#
# Disc length: 1486 seconds
#
# Revision: 0
# Processed by: cddbd v1.5.1PL2 Copyright (c) Steve Scherf et al.
# Submitted via: audiograbber 1.83.01
#
DISCID=7a05cc0a
DTITLE=Paul Petersen - My Dad
DYEAR=1900
DGENRE=
TTITLE0=My Dad
TTITLE1=Hey There Beautiful
TTITLE2=Keep Your Love Locked
TTITLE3=She Rides With Me
TTITLE4=Lollipops And Roses
TTITLE5=The Cheerleader
TTITLE6=You Don't Need Money
TTITLE7=Happy
TTITLE8=Girls In The Summertime
TTITLE9=She Can't Find Her Keys
EXTD=
EXTT0=
EXTT1=
EXTT2=
EXTT3=
EXTT4=
EXTT5=
EXTT6=
EXTT7=
EXTT8=
EXTT9=
PLAYORDER=
